<?xml version="1.0" standalone="no"?><!DOCTYPE svg PUBLIC "-//W3C//DTD SVG 1.1//EN" "http://www.w3.org/Graphics/SVG/1.1/DTD/svg11.dtd"><svg t="1559285889818" class="icon" style="" viewBox="0 0 1024 1024" version="1.1" xmlns="http://www.w3.org/2000/svg" p-id="5145" xmlns:xlink="http://www.w3.org/1999/xlink" width="300" height="300"><defs><style type="text/css"></style></defs><path d="M639.66802173 398.98680889c-68.22216691 13.8515595-140.97521778 20.97152-218.7769679 20.97152-78.19011161 0-150.94316247-7.1199605-218.77696791-20.97152-67.70435161-13.8515595-121.29823605-34.30526419-160.6521995-61.49056791v82.33263408c0 22.13660445 17.08790518 43.10812445 51.00480789 61.87892939 33.91690272 19.28862025 79.87301136 34.30526419 137.99777977 45.56774716 58.51312987 10.87412148 121.68659753 16.6995437 190.29712592 16.6995437 41.81358617 0 81.55591111-2.07126124 119.22697482-6.73159901h0.38836148v-4.14252247c0-12.94538272 9.5795832-25.11404247 29.25656494-35.98816396 19.67698173-10.87412148 45.95610864-19.67698173 79.48464989-25.89076542 33.91690272-6.73159902 70.29342815-9.5795832 109.64739159-9.57958321 6.2137837 0 12.55702124 0 18.38244345 0.38836148 15.01664395-13.33374419 22.52496592-27.57366518 22.52496593-42.20194766v-82.33263408c-38.70669431 27.1853037-92.17112494 47.63900839-160.00493037 61.49056791zM421.02050765 792.13808197c-78.19011161 0-150.94316247-6.73159902-218.7769679-20.97152-67.70435161-13.8515595-121.29823605-34.30526419-160.6521995-61.49056789v82.46208789c0 22.52496592 17.08790518 43.10812445 51.0048079 62.26729086 33.91690272 18.77080494 79.87301136 33.91690272 137.99777976 45.17938569 58.51312987 11.26248297 121.68659753 16.6995437 190.29712592 16.6995437 41.81358617 0 81.55591111-2.07126124 119.22697481-6.2137837v-123.75785877c-38.44778667 4.14252247-78.19011161 5.82542222-119.09752099 5.82542222z m0-186.15460345c-78.19011161 0-150.94316247-7.1199605-218.7769679-20.97152S80.9453037 550.83614815 41.59134025 523.65084445v82.33263407c0 22.13660445 17.08790518 43.10812445 51.0048079 61.87892938 33.91690272 19.28862025 79.87301136 34.30526419 137.99777976 45.56774716 58.51312987 10.87412148 121.68659753 16.6995437 190.29712592 16.6995437 41.81358617 0 81.55591111-2.07126124 119.22697481-6.73159901v-123.75785877c-38.44778667 4.2719763-78.19011161 6.34323753-119.09752099 6.34323754z m328.29490569-496.06706569c-33.91690272-19.28862025-79.87301136-34.30526419-137.99777976-45.17938566-58.51312987-11.26248297-121.68659753-16.6995437-190.29712593-16.6995437s-131.78399605 5.43706075-190.29712592 16.6995437c-58.12476839 10.87412148-104.21033086 25.89076543-137.99777975 45.17938566-33.91690272 18.77080494-51.0048079 39.74232494-51.0048079 61.87892939v62.26729087c0 22.13660445 17.08790518 42.71976297 51.0048079 61.87892938 33.91690272 19.28862025 79.87301136 34.30526419 137.99777975 45.17938568 58.51312987 11.26248297 121.68659753 16.6995437 190.29712592 16.6995437s131.78399605-5.43706075 190.29712593-16.6995437c58.12476839-10.87412148 104.21033086-25.89076543 137.99777976-45.17938568 33.91690272-19.28862025 51.0048079-39.74232494 51.0048079-61.87892938v-62.26729087c0-22.13660445-17.08790518-42.59030914-51.0048079-61.87892939z" fill="#ffffff" p-id="5146"></path><path d="M583.74396839 511.22327703c-19.5475279 11.00357531-29.25656494 22.91332741-29.25656492 35.7292563v35.7292563c0 12.81592889 9.83849086 24.72568098 29.25656492 35.72925629 19.5475279 11.00357531 46.08556247 19.67698173 79.61410371 26.1496731 33.52854124 6.34323753 70.16397431 9.5795832 109.51793777 9.5795832s75.98939653-3.23634569 109.51793778-9.5795832c33.52854124-6.34323753 60.06657581-15.14609778 79.61410371-26.1496731 19.5475279-11.00357531 29.25656494-22.91332741 29.25656494-35.72925629V546.95253333c0-12.81592889-9.83849086-24.72568098-29.25656494-35.7292563-19.5475279-11.00357531-46.08556247-19.67698173-79.61410371-26.14967308-33.52854124-6.34323753-70.0345205-9.5795832-109.51793778-9.5795832-39.48341728 0-75.98939653 3.23634569-109.51793777 9.5795832-33.52854124 6.34323753-60.06657581 15.14609778-79.61410371 26.14967308z m-29.25656492 238.45394964v47.50955457c0 12.81592889 9.83849086 24.72568098 29.25656492 35.72925629 19.5475279 11.00357531 46.08556247 19.67698173 79.61410371 26.14967308 33.52854124 6.34323753 70.16397431 9.5795832 109.51793777 9.57958322s75.98939653-3.23634569 109.51793778-9.57958322c33.52854124-6.34323753 60.06657581-15.14609778 79.61410371-26.14967308 19.5475279-11.00357531 29.25656494-22.91332741 29.25656494-35.72925629v-47.50955457c-22.65441975 15.66391309-53.3349768 27.44421136-92.4300326 35.47034864-39.09505581 8.02613728-81.16754963 11.9097521-126.08802764 11.9097521s-86.99297185-4.01306864-126.08802767-11.9097521c-38.83614815-8.02613728-69.51670518-19.80643555-92.17112492-35.47034864z m0 107.31722272v47.50955456c0 12.81592889 9.83849086 24.72568098 29.25656492 35.7292563 19.5475279 11.00357531 46.08556247 19.67698173 79.61410371 26.14967308 33.52854124 6.34323753 70.0345205 9.5795832 109.51793777 9.5795832s75.98939653-3.23634569 109.51793778-9.5795832c33.52854124-6.47269136 60.06657581-15.14609778 79.61410371-26.14967308 19.5475279-11.00357531 29.25656494-22.91332741 29.25656494-35.7292563v-47.50955456c-22.65441975 15.66391309-53.3349768 27.44421136-92.4300326 35.47034864-39.09505581 8.02613728-81.03809581 11.9097521-125.95857383 11.9097521s-86.99297185-4.01306864-126.08802765-11.9097521c-38.96560197-8.02613728-69.64615902-19.93588939-92.30057875-35.47034864z m0-214.63444544v47.50955457c0 12.81592889 9.83849086 24.72568098 29.25656492 35.7292563 19.5475279 11.00357531 46.08556247 19.67698173 79.61410371 26.14967308 33.52854124 6.34323753 70.0345205 9.5795832 109.51793777 9.57958321s75.98939653-3.23634569 109.51793778-9.57958321c33.52854124-6.34323753 60.06657581-15.14609778 79.61410371-26.14967308 19.5475279-11.00357531 29.25656494-22.91332741 29.25656494-35.7292563v-47.50955457c-22.65441975 15.66391309-53.3349768 27.44421136-92.4300326 35.47034864-39.09505581 8.02613728-81.03809581 11.9097521-125.95857383 11.9097521s-86.99297185-4.01306864-126.08802765-11.9097521c-38.96560197-7.89668347-69.64615902-19.80643555-92.30057875-35.47034864zM540.11802864 535.69005037h0.3883615v1.68289976h-0.3883615z" fill="#ffffff" p-id="5147"></path></svg>