<?xml version="1.0" standalone="no"?><!DOCTYPE svg PUBLIC "-//W3C//DTD SVG 1.1//EN" "http://www.w3.org/Graphics/SVG/1.1/DTD/svg11.dtd"><svg t="1559291405794" class="icon" style="" viewBox="0 0 1024 1024" version="1.1" xmlns="http://www.w3.org/2000/svg" p-id="6879" xmlns:xlink="http://www.w3.org/1999/xlink" width="300" height="300"><defs><style type="text/css"></style></defs><path d="M920.064 1018.368h-815.616c-33.792 0-61.44-27.648-61.44-61.44v-474.624c0-33.792 27.648-61.44 61.44-61.44h815.616c33.792 0 61.44 27.648 61.44 61.44v474.624c0 33.792-27.648 61.44-61.44 61.44z" fill="#8C9198" p-id="6880"></path><path d="M917.504 1007.616h-810.496c-36.352 0-64-27.648-64-64V410.624h938.496v533.504c0 35.84-27.648 63.488-64 63.488z m-875.008-832c0-36.352 27.648-64 64-64h128v128c0 36.352 27.648 64 64 64s64-27.648 64-64v-128h298.496v128c0 36.352 27.648 64 64 64s64-27.648 64-64v-128h128c36.352 0 64 27.648 64 64v192h-938.496v-192z m683.008 85.504c-12.8 0-21.504-8.704-21.504-21.504v-213.504c0-12.8 8.704-21.504 21.504-21.504s21.504 8.704 21.504 21.504v213.504c-0.512 12.8-8.704 21.504-21.504 21.504z m-427.008 0c-12.8 0-21.504-8.704-21.504-21.504v-213.504c0-12.8 8.704-21.504 21.504-21.504s21.504 8.704 21.504 21.504v213.504c0 12.8-8.704 21.504-21.504 21.504z" fill="#8C9198" p-id="6881"></path></svg>