<?xml version="1.0" standalone="no"?><!DOCTYPE svg PUBLIC "-//W3C//DTD SVG 1.1//EN" "http://www.w3.org/Graphics/SVG/1.1/DTD/svg11.dtd"><svg t="1559291901473" class="icon" style="" viewBox="0 0 1024 1024" version="1.1" xmlns="http://www.w3.org/2000/svg" p-id="16378" xmlns:xlink="http://www.w3.org/1999/xlink" width="300" height="300"><defs><style type="text/css"></style></defs><path d="M527.69792 819.26144c-79.93856 0-155.34592-6.49728-212.33664-18.28352-72.46336-14.99648-106.21952-36.5824-106.21952-67.93216s33.75104-52.93568 106.21952-67.93216c56.99072-11.79136 132.39808-18.28352 212.33664-18.28352s155.35104 6.49728 212.34176 18.28352c72.46848 14.99648 106.21952 36.5824 106.21952 67.93216s-33.75104 52.93568-106.21952 67.93216c-56.99072 11.78624-132.39808 18.28352-212.34176 18.28352z m-260.44416-86.21568c-0.09216 5.51424 117.38624 35.01568 260.44416 35.01568 143.05792 0 260.4288-29.29152 260.44928-35.01568-0.88064-6.43584-117.39136-35.01568-260.44928-35.01568s-260.53632 27.72992-260.44416 35.01568z" fill="#8C9198" p-id="16379"></path><path d="M513.85344 747.67872c214.9376-0.10752 353.31584-150.77376 353.31584-350.75584l-699.0336-1.40288c-4.86912 210.24768 154.32704 352.256 345.71776 352.15872zM469.67296 367.27296c-4.74624 0-9.31328-1.39264-11.58144-3.80928-15.68768-16.70144-15.68768-25.66656-15.68768-33.57696 0-12.55424 7.61856-24.71936 14.98624-36.48 7.02464-11.2128 13.66016-21.80608 13.66016-32.12288 0-7.424 0-21.248-12.95872-35.04128-3.19488-3.39968-0.60416-7.53664 5.7856-9.23648 6.38976-1.70496 14.16192-0.32256 17.3568 3.07712 15.68768 16.70144 15.68768 33.24928 15.68768 41.20064 0 12.54912-7.61856 24.71424-14.98624 36.48-7.02464 11.2128-13.66016 21.80608-13.66016 32.128 0 7.31136 0 13.6192 12.95872 27.4176 3.18976 3.39968 0.59904 7.53152-5.7856 9.23648a22.77888 22.77888 0 0 1-5.77536 0.72704zM585.73824 367.27296c-4.75136 0-9.3184-1.39264-11.58144-3.80928-15.68768-16.70144-15.68768-25.66656-15.68768-33.57696 0-12.55424 7.61856-24.71936 15.0016-36.48 7.00928-11.2128 13.66016-21.80608 13.66016-32.12288 0-7.424 0-21.248-12.95872-35.04128-3.2-3.39968-0.60928-7.53664 5.78048-9.23648 6.38976-1.70496 14.17216-0.32256 17.36192 3.07712 15.68768 16.70144 15.68768 33.24416 15.68768 41.19552 0 12.54912-7.61856 24.71424-14.99136 36.48-7.01952 11.2128-13.66016 21.80608-13.66016 32.128 0 7.31136 0 13.6192 12.94848 27.4176 3.18976 3.39968 0.59904 7.53152-5.79072 9.23648a22.51264 22.51264 0 0 1-5.77024 0.73216zM522.77248 314.28608a22.25664 22.25664 0 0 1-5.72928-0.82944c-6.28224-1.81248-8.61184-5.9904-5.20704-9.33376 13.7984-13.55776 14.65856-27.37152 15.1296-34.7904 0.64-10.31168-5.32992-21.01248-11.65824-32.35328-6.62528-11.88864-13.49632-24.18176-12.71808-36.72576 0.50176-7.90016 1.0496-16.86016 17.77664-33.28 3.40992-3.34336 11.24864-4.5824 17.54112-2.77504 6.29248 1.81248 8.61184 5.9904 5.21216 9.33376-13.7984 13.55776-14.19776 19.8656-14.64832 27.17184-0.64 10.31168 5.34016 21.0176 11.65824 32.35328 6.6304 11.88352 13.4912 24.18176 12.6976 36.72576-0.50176 7.94624-1.52064 24.48384-18.24256 40.89856-2.42176 2.37568-7.07584 3.6864-11.81184 3.60448z" fill="#8C9198" p-id="16380"></path></svg>